<?xml version="1.0" standalone="no"?>
<!DOCTYPE svg PUBLIC "-//W3C//DTD SVG 20010904//EN"
 "http://www.w3.org/TR/2001/REC-SVG-20010904/DTD/svg10.dtd">
<svg version="1.0" xmlns="http://www.w3.org/2000/svg"
 width="128.000000pt" height="128.000000pt" viewBox="0 0 128.000000 128.000000"
 preserveAspectRatio="xMidYMid meet">

<g transform="translate(0.000000,128.000000) scale(0.100000,-0.100000)"
fill="#000000" stroke="none">
<path d="M224 1266 c-98 -31 -190 -128 -214 -226 -7 -30 -10 -170 -8 -420 l3
-375 26 -56 c33 -71 87 -125 158 -158 l56 -26 400 0 c389 0 401 1 447 22 60
27 134 101 161 161 21 46 22 58 22 447 l0 400 -26 56 c-33 71 -87 125 -158
158 l-56 26 -385 2 c-294 2 -395 -1 -426 -11z m547 -206 c183 -56 308 -227
309 -420 0 -156 -96 -317 -229 -384 -77 -39 -88 -29 -92 83 -3 70 -8 93 -23
110 -23 25 -24 24 38 41 85 23 146 106 146 196 0 16 -9 49 -20 73 -11 24 -20
64 -20 90 0 73 -9 79 -72 53 -76 -31 -263 -32 -332 -1 -60 26 -76 16 -76 -51
0 -26 -9 -67 -20 -91 -27 -59 -25 -105 6 -167 28 -56 81 -96 142 -108 33 -7
41 -18 21 -29 -5 -4 -14 -18 -19 -31 -7 -17 -17 -24 -36 -24 -27 0 -84 28 -84
42 0 13 -61 40 -76 34 -19 -7 -18 -25 4 -33 9 -4 33 -23 53 -44 23 -25 51 -42
82 -51 47 -12 47 -12 47 -55 0 -54 -23 -70 -72 -49 -142 60 -248 230 -248 395
0 298 287 510 571 421z"/>
</g>
</svg>
